HIERARCHY
ROOT joint_Root
{
	OFFSET 0.0 0.0 0.0
	CHANNELS 6 Xposition Yposition Zposition Zrotation Xrotation Yrotation 
	JOINT Hips
	{
		OFFSET -17.1583 93.1646 452.98
		CHANNELS 6 Xposition Yposition Zposition Zrotation Xrotation Yrotation 
		JOINT Spine
		{
			OFFSET 15.7357 0.0 0.0
			CHANNELS 6 Xposition Yposition Zposition Zrotation Xrotation Yrotation 
			JOINT Chest
			{
				OFFSET 8.98455 -0.406207 0.0
				CHANNELS 6 Xposition Yposition Zposition Zrotation Xrotation Yrotation 
				JOINT Neck
				{
					OFFSET 16.3773 0.0 0.0
					CHANNELS 6 Xposition Yposition Zposition Zrotation Xrotation Yrotation 
					JOINT Head
					{
						OFFSET 6.45672 0.0 0.0
						CHANNELS 6 Xposition Yposition Zposition Zrotation Xrotation Yrotation 
						End Site
						{
							OFFSET 0.0 0.0 0.0
						}
					}
				}
				JOINT Shoulder_L
				{
					OFFSET 12.9942 -0.242716 4.98039
					CHANNELS 6 Xposition Yposition Zposition Zrotation Xrotation Yrotation 
					JOINT UpperArm_L
					{
						OFFSET 5.34809 0.0 0.0
						CHANNELS 6 Xposition Yposition Zposition Zrotation Xrotation Yrotation 
						JOINT LowerArm_L
						{
							OFFSET 24.3286 1.87007e-05 0.0
							CHANNELS 6 Xposition Yposition Zposition Zrotation Xrotation Yrotation 
							JOINT Hand_L
							{
								OFFSET 22.2916 0.0 0.0
								CHANNELS 6 Xposition Yposition Zposition Zrotation Xrotation Yrotation 
								End Site
								{
									OFFSET 0.0 0.0 0.0
								}
							}
						}
					}
				}
				JOINT Shoulder_R
				{
					OFFSET 12.9945 -0.242716 -4.98039
					CHANNELS 6 Xposition Yposition Zposition Zrotation Xrotation Yrotation 
					JOINT UpperArm_R
					{
						OFFSET -5.34813 0.0 0.0
						CHANNELS 6 Xposition Yposition Zposition Zrotation Xrotation Yrotation 
						JOINT LowerArm_R
						{
							OFFSET -24.3289 0.000322201 0.0
							CHANNELS 6 Xposition Yposition Zposition Zrotation Xrotation Yrotation 
							JOINT Hand_R
							{
								OFFSET -22.2915 -0.000108084 0.0
								CHANNELS 6 Xposition Yposition Zposition Zrotation Xrotation Yrotation 
								End Site
								{
									OFFSET 0.0 0.0 0.0
								}
							}
						}
					}
				}
			}
		}
		JOINT UpperLeg_L
		{
			OFFSET -2.19248 -6.46944 0.0
			CHANNELS 6 Xposition Yposition Zposition Zrotation Xrotation Yrotation 
			JOINT LowerLeg_L
			{
				OFFSET 39.0811 0.0 -1.23785e-05
				CHANNELS 6 Xposition Yposition Zposition Zrotation Xrotation Yrotation 
				JOINT Foot_L
				{
					OFFSET 40.9854 0.0 -1.26872e-05
					CHANNELS 6 Xposition Yposition Zposition Zrotation Xrotation Yrotation 
					JOINT Toes_L
					{
						OFFSET 11.7543 0.0 0.0
						CHANNELS 6 Xposition Yposition Zposition Zrotation Xrotation Yrotation 
						End Site
						{
							OFFSET 0.0 0.0 0.0
						}
					}
				}
			}
		}
		JOINT UpperLeg_R
		{
			OFFSET -2.19251 6.46944 0.0
			CHANNELS 6 Xposition Yposition Zposition Zrotation Xrotation Yrotation 
			JOINT LowerLeg_R
			{
				OFFSET -39.0811 -0.00228153 -0.0401928
				CHANNELS 6 Xposition Yposition Zposition Zrotation Xrotation Yrotation 
				JOINT Foot_R
				{
					OFFSET -40.9854 0.0 0.0
					CHANNELS 6 Xposition Yposition Zposition Zrotation Xrotation Yrotation 
					JOINT Toes_R
					{
						OFFSET -11.7543 0.0 0.0
						CHANNELS 6 Xposition Yposition Zposition Zrotation Xrotation Yrotation 
						End Site
						{
							OFFSET 0.0 0.0 0.0
						}
					}
				}
			}
		}
	}
}
MOTION
Frames:	4
Frame Time:	0.0333333
0.000000 0.000000 0.000000 0.000000 0.000000 -0.000000 -3.070350 92.469600 -0.309355 87.850600 3.524120 4.838280 15.735700 0.000005 -0.000001 86.196600 85.848200 -85.354900 8.984550 -0.406207 -0.000000 0.524377 -0.603797 1.685020 16.377300 -0.000001 -0.000001 7.406880 0.331987 -1.714930 6.456720 -0.000001 -0.000000 -7.088600 -1.684800 0.196659 12.994200 -0.242716 4.980390 -93.597800 10.312200 -70.646500 5.348090 -0.000007 -0.000001 -68.976100 29.914800 -3.026990 24.328600 0.000019 0.000005 12.040500 28.389100 -24.161500 22.291600 -0.000001 0.000005 -5.010740 5.102120 5.065150 12.994500 -0.242716 -4.980390 87.512600 7.022700 -70.439500 -5.348130 -0.000001 -0.000004 -70.447100 24.784900 -3.480670 -24.328900 0.000322 -0.000009 1.067660 3.570380 -16.675900 -22.291500 -0.000108 -0.000004 -4.891900 5.246180 1.533390 -2.192480 -6.469440 -0.000000 -177.001000 1.876360 -0.143629 39.081100 -0.000007 -0.000012 0.237311 -0.582801 22.156100 40.985400 -0.000006 -0.000013 1.344620 5.924380 -72.549700 11.754300 -0.000000 0.000003 -0.001138 0.184977 -9.073070 -2.192510 6.469440 -0.000001 -175.311000 12.564200 -174.824000 -39.081100 -0.002282 -0.040193 0.073339 -0.275101 14.277600 -40.985400 0.000008 0.000006 3.087880 3.905180 -70.609700 -11.754300 -0.000006 -0.000006 -0.009886 0.270448 -5.586020
0.000000 0.000000 0.000000 0.000000 0.000000 -0.000000 -3.146740 92.478600 -0.384146 87.827100 3.550190 4.866720 15.735700 0.000005 -0.000001 86.238100 85.831800 -85.410100 8.984550 -0.406207 -0.000000 0.557312 -0.598849 1.657640 16.377300 -0.000001 -0.000001 7.254210 0.209671 -1.582060 6.456720 -0.000001 -0.000000 -7.240070 -1.896050 0.356841 12.994200 -0.242716 4.980390 -93.598000 10.321600 -70.661900 5.348090 -0.000007 -0.000001 -69.000900 29.982400 -2.924930 24.328600 0.000019 0.000005 11.994400 28.214000 -24.198400 22.291600 -0.000001 0.000005 -5.017440 5.102090 5.065890 12.994500 -0.242716 -4.980390 87.506400 7.030510 -70.414800 -5.348130 -0.000001 -0.000004 -69.764500 23.785900 -3.750040 -24.328900 0.000322 -0.000009 1.242300 4.152350 -16.685500 -22.291500 -0.000108 -0.000004 -4.908880 5.248300 1.477580 -2.192480 -6.469440 -0.000000 -176.930000 1.910720 -0.183045 39.081100 -0.000007 -0.000012 0.236291 -0.580010 22.166000 40.985400 -0.000006 -0.000013 1.288560 5.928020 -72.495600 11.754300 -0.000000 0.000003 -0.001169 0.185405 -9.055680 -2.192510 6.469440 -0.000001 -175.247000 12.624400 -174.840000 -39.081100 -0.002282 -0.040193 0.071785 -0.269832 14.235100 -40.985400 0.000008 0.000006 3.075110 3.942580 -70.522400 -11.754300 -0.000006 -0.000006 -0.010074 0.271854 -5.528530
0.000000 0.000000 0.000000 0.000000 0.000000 -0.000000 -3.209580 92.488100 -0.485509 87.824300 3.557290 4.810690 15.735700 0.000005 -0.000001 86.218600 85.835900 -85.412000 8.984550 -0.406207 -0.000000 0.548894 -0.599848 1.614810 16.377300 -0.000001 -0.000001 7.056100 0.053926 -1.402340 6.456720 -0.000001 -0.000000 -7.450950 -2.108850 0.537693 12.994200 -0.242716 4.980390 -93.606200 10.343700 -70.659000 5.348090 -0.000007 -0.000001 -69.078300 29.796300 -2.812490 24.328600 0.000019 0.000005 11.932900 28.087400 -24.173500 22.291600 -0.000001 0.000005 -5.022600 5.103590 5.031350 12.994500 -0.242716 -4.980390 87.493500 7.052140 -70.376200 -5.348130 -0.000001 -0.000004 -68.954500 22.354200 -4.124140 -24.328900 0.000322 -0.000009 1.357930 4.553190 -16.638100 -22.291500 -0.000108 -0.000004 -4.771340 5.250410 1.421930 -2.192480 -6.469440 -0.000000 -176.880000 1.945800 -0.329069 39.081100 -0.000007 -0.000012 0.234290 -0.574809 22.176100 40.985400 -0.000006 -0.000013 1.232640 5.928080 -72.395500 11.754300 -0.000000 0.000003 -0.001078 0.184137 -9.107210 -2.192510 6.469440 -0.000001 -175.181000 12.686000 -174.959000 -39.081100 -0.002282 -0.040193 0.071683 -0.269928 14.209800 -40.985400 0.000008 0.000006 3.125970 3.958480 -70.450300 -11.754300 -0.000006 -0.000006 -0.009971 0.271091 -5.559730
0.000000 0.000000 0.000000 0.000000 0.000000 -0.000000 -3.280730 92.500900 -0.576768 87.815400 3.597630 4.785230 15.735700 0.000005 -0.000001 86.259100 85.824600 -85.467600 8.984550 -0.406207 -0.000000 0.571692 -0.594357 1.584710 16.377300 -0.000001 -0.000001 6.807300 -0.111833 -1.199040 6.456720 -0.000001 -0.000000 -7.686190 -2.430860 0.767722 12.994200 -0.242716 4.980390 -93.595800 10.356200 -70.732000 5.348090 -0.000007 -0.000001 -69.223600 29.591700 -2.695300 24.328600 0.000019 0.000005 11.925700 28.138600 -24.124300 22.291600 -0.000001 0.000005 -5.128590 5.100980 5.091200 12.994500 -0.242716 -4.980390 87.480500 7.070900 -70.330300 -5.348130 -0.000001 -0.000004 -67.982400 20.351500 -4.550670 -24.328900 0.000322 -0.000009 1.532460 5.122430 -16.690800 -22.291500 -0.000108 -0.000004 -4.697180 5.250340 1.423610 -2.192480 -6.469440 -0.000000 -176.825000 1.921430 -0.420588 39.081100 -0.000007 -0.000012 0.235530 -0.578015 22.170400 40.985400 -0.000006 -0.000013 1.197660 5.991890 -72.375500 11.754300 -0.000000 0.000003 -0.001018 0.183294 -9.141470 -2.192510 6.469440 -0.000001 -175.154000 12.912100 -175.001000 -39.081100 -0.002282 -0.040193 0.070289 -0.266062 14.125700 -40.985400 0.000008 0.000006 3.236960 4.145020 -70.424200 -11.754300 -0.000006 -0.000006 -0.010577 0.275564 -5.376750
